<svg width="96" height="96" viewBox="0 0 96 96" fill="none" xmlns="http://www.w3.org/2000/svg">
<path fill-rule="evenodd" clip-rule="evenodd" d="M0.00116351 96C0.000388431 95.9203 0 95.8402 0 95.76C0 83.5733 8.99357 73.4866 20.7058 71.7758C9.00965 70.1702 0 60.1373 0 48C0 34.7452 10.7452 24 24 24H24.24C10.9327 24 0.129945 13.2768 0.00116351 0L95.999 0C95.8699 13.2768 85.0675 24 71.76 24H72C85.2547 24 96 34.7452 96 48C96 60.1373 86.9904 70.1702 75.2942 71.7758C87.0062 73.4866 96 83.5733 96 95.76C96 95.8402 95.9995 95.9203 95.999 96L0.00116351 96Z" fill="#9482FF"/>
</svg>
