<svg width="92" height="92" viewBox="0 0 92 92" fill="none" xmlns="http://www.w3.org/2000/svg">
<path fill-rule="evenodd" clip-rule="evenodd" d="M45.9989 0H17.48C7.82607 0 0 7.82607 0 17.48V74.52C0 84.174 7.82607 92 17.48 92H45.9989C45.9996 91.9236 46 91.8468 46 91.77C46 91.8468 46.0005 91.9236 46.0009 92H74.52C84.174 92 92 84.174 92 74.52V17.48C92 7.82607 84.174 0 74.52 0H46.0009C46.1247 12.7236 56.477 23 69.23 23H69C56.2976 23 46 33.2975 46 46C46 33.2975 35.7025 23 23 23H22.77C35.5228 23 45.8755 12.7236 45.9989 0ZM46 46C46 57.6316 37.3658 67.2465 26.1569 68.7852C37.3812 70.4246 46 80.0911 46 91.77C46 80.0911 54.619 70.4246 65.843 68.7852C54.6342 67.2465 46 57.6316 46 46Z" fill="#FFD9A0"/>
</svg>
