<svg width="83" height="66" viewBox="0 0 83 66" fill="none" xmlns="http://www.w3.org/2000/svg">
<path d="M76.0473 36.2878C75.7987 36.4742 75.5158 36.6099 75.2147 36.687C74.9137 36.7641 74.6004 36.7812 74.2928 36.7373C73.9851 36.6933 73.6891 36.5892 73.4217 36.4309C73.1543 36.2725 72.9207 36.0631 72.7343 35.8145C71.308 33.8973 69.4514 32.3417 67.3141 31.2731C65.1768 30.2044 62.8184 29.6525 60.4288 29.6618C59.9635 29.6617 59.5085 29.5245 59.1207 29.2672C58.733 29.0099 58.4297 28.644 58.2488 28.2153C58.1259 27.9241 58.0626 27.6113 58.0626 27.2953C58.0626 26.9793 58.1259 26.6665 58.2488 26.3754C58.4297 25.9466 58.733 25.5807 59.1207 25.3235C59.5085 25.0662 59.9635 24.9289 60.4288 24.9289C61.7566 24.9288 63.0577 24.5563 64.1845 23.8538C65.3112 23.1512 66.2183 22.1468 66.8027 20.9546C67.3872 19.7624 67.6256 18.4301 67.4909 17.1092C67.3561 15.7883 66.8536 14.5316 66.0405 13.4819C65.2274 12.4323 64.1362 11.6317 62.8908 11.1711C61.6455 10.7105 60.2959 10.6084 58.9955 10.8764C57.695 11.1444 56.4958 11.7717 55.5339 12.687C54.5721 13.6024 53.8863 14.7692 53.5543 16.0548C53.4767 16.3558 53.3404 16.6386 53.1534 16.887C52.9665 17.1354 52.7324 17.3446 52.4646 17.5025C52.1968 17.6605 51.9005 17.7641 51.5926 17.8075C51.2847 17.851 50.9713 17.8333 50.6703 17.7557C50.3692 17.678 50.0864 17.5417 49.838 17.3548C49.5896 17.1678 49.3804 16.9337 49.2225 16.6659C49.0646 16.3981 48.9609 16.1018 48.9175 15.7939C48.8741 15.486 48.8917 15.1726 48.9694 14.8716C49.4301 13.0888 50.3006 11.4382 51.5115 10.051C52.7224 8.66384 54.2404 7.57844 55.9446 6.88116C57.6488 6.18389 59.4922 5.89398 61.3282 6.03451C63.1642 6.17504 64.942 6.74214 66.5202 7.69066C68.0985 8.63919 69.4336 9.94297 70.4193 11.4983C71.4049 13.0536 72.014 14.8175 72.1981 16.6496C72.3821 18.4817 72.136 20.3315 71.4793 22.0518C70.8227 23.772 69.7736 25.3153 68.4155 26.5588C71.6333 27.952 74.4306 30.1629 76.5294 32.9718C76.7159 33.2211 76.8513 33.5046 76.928 33.8063C77.0047 34.108 77.0211 34.4218 76.9763 34.7298C76.9316 35.0379 76.8264 35.334 76.667 35.6014C76.5076 35.8687 76.297 36.1019 76.0473 36.2878ZM60.1094 54.5093C60.2806 54.7786 60.3956 55.0798 60.4474 55.3948C60.4992 55.7097 60.4867 56.0318 60.4108 56.3418C60.3348 56.6518 60.197 56.9433 60.0055 57.1986C59.814 57.4539 59.5729 57.6679 59.2966 57.8276C59.0202 57.9873 58.7145 58.0895 58.3976 58.128C58.0808 58.1665 57.7595 58.1405 57.453 58.0515C57.1464 57.9626 56.8611 57.8126 56.614 57.6106C56.367 57.4085 56.1634 57.1585 56.0154 56.8757C54.5247 54.3515 52.4016 52.2596 49.8557 50.8064C47.3097 49.3532 44.4289 48.5889 41.4974 48.5889C38.5659 48.5889 35.685 49.3532 33.1391 50.8064C30.5931 52.2596 28.47 54.3515 26.9793 56.8757C26.8314 57.1585 26.6278 57.4085 26.3807 57.6106C26.1337 57.8126 25.8483 57.9626 25.5418 58.0515C25.2353 58.1405 24.9139 58.1665 24.5971 58.128C24.2803 58.0895 23.9745 57.9873 23.6982 57.8276C23.4219 57.6679 23.1807 57.4539 22.9892 57.1986C22.7978 56.9433 22.6599 56.6518 22.584 56.3418C22.508 56.0318 22.4956 55.7097 22.5474 55.3948C22.5992 55.0798 22.7142 54.7786 22.8854 54.5093C25.1796 50.5673 28.6778 47.4652 32.8658 45.6588C30.5092 43.8545 28.7773 41.3571 27.9135 38.5176C27.0496 35.6781 27.0973 32.6393 28.0499 29.8283C29.0024 27.0173 30.8119 24.5755 33.2239 22.8461C35.636 21.1166 38.5294 20.1866 41.4974 20.1866C44.4654 20.1866 47.3587 21.1166 49.7708 22.8461C52.1829 24.5755 53.9923 27.0173 54.9449 29.8283C55.8974 32.6393 55.9451 35.6781 55.0813 38.5176C54.2175 41.3571 52.4855 43.8545 50.1289 45.6588C54.3169 47.4652 57.8151 50.5673 60.1094 54.5093ZM41.4974 43.8604C43.3695 43.8604 45.1996 43.3052 46.7563 42.2651C48.3129 41.225 49.5261 39.7466 50.2426 38.017C50.959 36.2874 51.1465 34.3841 50.7812 32.548C50.416 30.7118 49.5145 29.0252 48.1907 27.7013C46.8669 26.3775 45.1802 25.476 43.344 25.1108C41.5079 24.7455 39.6046 24.933 37.875 25.6494C36.1454 26.3659 34.667 27.5791 33.6269 29.1358C32.5868 30.6924 32.0316 32.5225 32.0316 34.3946C32.0316 36.9051 33.0289 39.3127 34.8041 41.0879C36.5793 42.8631 38.9869 43.8604 41.4974 43.8604ZM24.9324 27.2953C24.9324 26.6677 24.683 26.0658 24.2392 25.622C23.7954 25.1782 23.1935 24.9289 22.5659 24.9289C21.2381 24.9288 19.937 24.5563 18.8103 23.8538C17.6836 23.1512 16.7765 22.1468 16.192 20.9546C15.6076 19.7624 15.3692 18.4301 15.5039 17.1092C15.6386 15.7883 16.1411 14.5316 16.9542 13.4819C17.7674 12.4323 18.8586 11.6317 20.1039 11.1711C21.3493 10.7105 22.6988 10.6084 23.9993 10.8764C25.2997 11.1444 26.499 11.7717 27.4608 12.687C28.4226 13.6024 29.1085 14.7692 29.4404 16.0548C29.5973 16.6628 29.9893 17.1836 30.5302 17.5025C31.0711 17.8215 31.7165 17.9126 32.3245 17.7557C32.9325 17.5987 33.4533 17.2067 33.7722 16.6659C34.0912 16.125 34.1823 15.4796 34.0254 14.8716C33.5646 13.0888 32.6942 11.4382 31.4833 10.051C30.2723 8.66384 28.7544 7.57844 27.0502 6.88116C25.346 6.18389 23.5025 5.89398 21.6666 6.03451C19.8306 6.17504 18.0527 6.74214 16.4745 7.69066C14.8963 8.63919 13.5612 9.94297 12.5755 11.4983C11.5898 13.0536 10.9807 14.8175 10.7967 16.6496C10.6126 18.4817 10.8587 20.3315 11.5154 22.0518C12.1721 23.772 13.2212 25.3153 14.5792 26.5588C11.3647 27.9533 8.57059 30.1641 6.47418 32.9718C6.09722 33.4739 5.93515 34.1052 6.02364 34.7268C6.11212 35.3484 6.4439 35.9093 6.94599 36.2863C7.44808 36.6633 8.07936 36.8253 8.70095 36.7368C9.32253 36.6484 9.88351 36.3166 10.2605 35.8145C11.6868 33.8973 13.5433 32.3417 15.6807 31.2731C17.818 30.2044 20.1763 29.6525 22.5659 29.6618C23.1935 29.6618 23.7954 29.4124 24.2392 28.9687C24.683 28.5249 24.9324 27.9229 24.9324 27.2953Z" fill="#FFCA7C"/>
</svg>
