<svg width="146" height="58" viewBox="0 0 146 58" fill="none" xmlns="http://www.w3.org/2000/svg">
<rect x="0.499023" y="0.5" width="145" height="57" rx="7.5" fill="#F8F8F8"/>
<rect x="0.499023" y="0.5" width="145" height="57" rx="7.5" stroke="#868686"/>
<rect x="12.3457" y="12.0982" width="35.4977" height="35.4977" rx="6.17352" fill="white"/>
<path d="M31.3319 23.4326V28.0612L35.2476 26.1033C35.4516 26.0012 35.6879 25.9843 35.9043 26.0564C36.1208 26.1285 36.2997 26.2836 36.4018 26.4877C36.5039 26.6917 36.5208 26.9279 36.4487 27.1444C36.3766 27.3608 36.2215 27.5398 36.0174 27.6418L30.8567 30.2222C30.7256 30.2878 30.5799 30.3188 30.4334 30.3123C30.287 30.3058 30.1446 30.2619 30.0199 30.1849C29.8951 30.1079 29.7921 30.0003 29.7207 29.8723C29.6492 29.7442 29.6117 29.6001 29.6116 29.4535V23.4326C29.6116 23.2045 29.7022 22.9857 29.8635 22.8244C30.0248 22.6631 30.2436 22.5724 30.4717 22.5724C30.6999 22.5724 30.9186 22.6631 31.08 22.8244C31.2413 22.9857 31.3319 23.2045 31.3319 23.4326ZM30.4717 38.9149C28.6005 38.9149 26.7712 38.36 25.2153 37.3204C23.6593 36.2808 22.4466 34.8031 21.7305 33.0742C21.0144 31.3454 20.827 29.443 21.1921 27.6077C21.5572 25.7723 22.4583 24.0865 23.7815 22.7632C25.1047 21.44 26.7906 20.5389 28.6259 20.1739C30.4613 19.8088 32.3636 19.9962 34.0925 20.7123C35.8213 21.4284 37.299 22.6411 38.3386 24.197C39.3783 25.7529 39.9332 27.5822 39.9332 29.4535C39.9332 29.6816 40.0238 29.9004 40.1851 30.0617C40.3464 30.223 40.5652 30.3136 40.7933 30.3136C41.0214 30.3136 41.2402 30.223 41.4015 30.0617C41.5628 29.9004 41.6535 29.6816 41.6535 29.4535C41.6535 27.242 40.9977 25.0801 39.769 23.2413C38.5403 21.4025 36.794 19.9693 34.7508 19.123C32.7076 18.2766 30.4593 18.0552 28.2903 18.4866C26.1213 18.9181 24.1289 19.9831 22.5651 21.5468C21.0013 23.1106 19.9363 25.103 19.5049 27.2721C19.0734 29.4411 19.2949 31.6894 20.1412 33.7325C20.9875 35.7757 22.4207 37.5221 24.2595 38.7507C26.0983 39.9794 28.2602 40.6352 30.4717 40.6352C30.6999 40.6352 30.9186 40.5446 31.08 40.3833C31.2413 40.222 31.3319 40.0032 31.3319 39.7751C31.3319 39.5469 31.2413 39.3282 31.08 39.1669C30.9186 39.0056 30.6999 38.9149 30.4717 38.9149ZM41.6244 39.5536C41.6559 39.6635 41.6652 39.7786 41.6517 39.8922C41.6382 40.0057 41.6022 40.1155 41.5458 40.2149C41.4894 40.3144 41.4137 40.4016 41.3232 40.4715C41.2327 40.5414 41.1291 40.5925 41.0186 40.6219C40.9081 40.6513 40.7928 40.6583 40.6795 40.6426C40.5663 40.6269 40.4572 40.5888 40.3589 40.5305C40.2605 40.4722 40.1748 40.3948 40.1067 40.3029C40.0386 40.2111 39.9894 40.1065 39.9622 39.9955C39.6579 38.8526 38.5849 38.0548 37.3528 38.0548C36.1207 38.0548 35.0476 38.8526 34.7434 39.9955C34.6948 40.1788 34.5869 40.341 34.4366 40.4567C34.2863 40.5724 34.102 40.6351 33.9123 40.6352C33.8375 40.635 33.7631 40.6253 33.6908 40.6062C33.4704 40.5474 33.2823 40.4035 33.168 40.2061C33.0537 40.0087 33.0224 39.774 33.0812 39.5536C33.3602 38.5176 34.0163 37.6233 34.9208 37.0463C34.4392 36.5653 34.1112 35.9523 33.9781 35.2848C33.8451 34.6173 33.913 33.9253 34.1733 33.2964C34.4336 32.6675 34.8745 32.1299 35.4404 31.7517C36.0063 31.3735 36.6716 31.1716 37.3523 31.1716C38.0329 31.1716 38.6982 31.3735 39.2641 31.7517C39.83 32.1299 40.271 32.6675 40.5312 33.2964C40.7915 33.9253 40.8595 34.6173 40.7264 35.2848C40.5933 35.9523 40.2653 36.5653 39.7837 37.0463C40.6886 37.6231 41.3452 38.5174 41.6244 39.5536ZM35.6325 34.6143C35.6325 34.9545 35.7334 35.2871 35.9224 35.57C36.1115 35.8529 36.3801 36.0734 36.6945 36.2036C37.0088 36.3338 37.3547 36.3679 37.6884 36.3015C38.0221 36.2351 38.3286 36.0713 38.5692 35.8307C38.8098 35.5901 38.9736 35.2836 39.04 34.9499C39.1064 34.6162 39.0723 34.2703 38.9421 33.956C38.8119 33.6416 38.5914 33.373 38.3085 33.1839C38.0256 32.9949 37.693 32.894 37.3528 32.894C36.8966 32.894 36.459 33.0753 36.1364 33.3979C35.8138 33.7205 35.6325 34.158 35.6325 34.6143Z" fill="black"/>
<path d="M58.6724 18.1686V27.1895H56.7651V19.979H56.7123L54.6465 21.274V19.5826L56.8797 18.1686H58.6724ZM64.5532 21.9347V23.4235H60.4392V21.9347H64.5532ZM65.384 27.1895V25.8152L68.595 22.8421C68.8681 22.5778 69.0971 22.3399 69.2821 22.1285C69.4701 21.9171 69.6125 21.71 69.7094 21.5074C69.8063 21.3019 69.8548 21.0802 69.8548 20.8423C69.8548 20.578 69.7946 20.3504 69.6742 20.1596C69.5538 19.9658 69.3893 19.8175 69.1808 19.7147C68.9723 19.609 68.736 19.5561 68.4717 19.5561C68.1956 19.5561 67.9548 19.6119 67.7493 19.7235C67.5437 19.8351 67.3852 19.9951 67.2736 20.2036C67.162 20.4121 67.1062 20.6602 67.1062 20.948H65.2959C65.2959 20.3578 65.4295 19.8454 65.6967 19.4108C65.9639 18.9762 66.3383 18.6399 66.8199 18.4021C67.3015 18.1642 67.8565 18.0453 68.4849 18.0453C69.1309 18.0453 69.6932 18.1598 70.1719 18.3889C70.6535 18.615 71.0279 18.9292 71.2951 19.3315C71.5623 19.7338 71.6959 20.1948 71.6959 20.7146C71.6959 21.0552 71.6284 21.3914 71.4933 21.7233C71.3612 22.0551 71.1248 22.4236 70.7841 22.8288C70.4435 23.2311 69.9634 23.7142 69.3438 24.278L68.0268 25.5686V25.6302H71.8149V27.1895H65.384ZM76.9693 23.2781V27.1895H75.0929V18.1686H76.9165V21.6175H76.9958C77.1485 21.2182 77.3951 20.9054 77.7358 20.6793C78.0764 20.4503 78.5037 20.3358 79.0175 20.3358C79.4874 20.3358 79.897 20.4385 80.2465 20.6441C80.5988 20.8467 80.8719 21.1389 81.0657 21.5206C81.2625 21.8994 81.3594 22.3531 81.3565 22.8817V27.1895H79.48V23.2165C79.483 22.7995 79.3773 22.475 79.1629 22.243C78.9515 22.011 78.6549 21.895 78.2731 21.895C78.0177 21.895 77.7916 21.9494 77.5948 22.058C77.401 22.1667 77.2483 22.3252 77.1367 22.5337C77.0281 22.7393 76.9723 22.9874 76.9693 23.2781ZM85.3939 27.3217C84.7097 27.3217 84.118 27.1763 83.6188 26.8856C83.1225 26.5919 82.7393 26.1838 82.4691 25.6611C82.199 25.1354 82.0639 24.5261 82.0639 23.8331C82.0639 23.1342 82.199 22.5234 82.4691 22.0008C82.7393 21.4751 83.1225 21.0669 83.6188 20.7762C84.118 20.4826 84.7097 20.3358 85.3939 20.3358C86.0781 20.3358 86.6683 20.4826 87.1646 20.7762C87.6638 21.0669 88.0484 21.4751 88.3186 22.0008C88.5888 22.5234 88.7238 23.1342 88.7238 23.8331C88.7238 24.5261 88.5888 25.1354 88.3186 25.6611C88.0484 26.1838 87.6638 26.5919 87.1646 26.8856C86.6683 27.1763 86.0781 27.3217 85.3939 27.3217ZM85.4027 25.8681C85.7139 25.8681 85.9738 25.78 86.1823 25.6038C86.3908 25.4247 86.5479 25.181 86.6536 24.8726C86.7623 24.5643 86.8166 24.2134 86.8166 23.8199C86.8166 23.4264 86.7623 23.0755 86.6536 22.7672C86.5479 22.4588 86.3908 22.2151 86.1823 22.036C85.9738 21.8569 85.7139 21.7673 85.4027 21.7673C85.0885 21.7673 84.8242 21.8569 84.6098 22.036C84.3984 22.2151 84.2384 22.4588 84.1297 22.7672C84.024 23.0755 83.9711 23.4264 83.9711 23.8199C83.9711 24.2134 84.024 24.5643 84.1297 24.8726C84.2384 25.181 84.3984 25.4247 84.6098 25.6038C84.8242 25.78 85.0885 25.8681 85.4027 25.8681ZM93.7864 24.3088V20.4239H95.6629V27.1895H93.8613V25.9606H93.7908C93.6382 26.357 93.3841 26.6756 93.0288 26.9164C92.6765 27.1572 92.2463 27.2776 91.7382 27.2776C91.286 27.2776 90.8881 27.1748 90.5446 26.9693C90.201 26.7637 89.9323 26.4715 89.7385 26.0927C89.5476 25.7139 89.4507 25.2602 89.4478 24.7317V20.4239H91.3242V24.3969C91.3271 24.7963 91.4343 25.112 91.6457 25.3439C91.8572 25.5759 92.1405 25.6919 92.4959 25.6919C92.722 25.6919 92.9334 25.6405 93.1301 25.5377C93.3269 25.432 93.4855 25.2764 93.6059 25.0708C93.7292 24.8653 93.7894 24.6113 93.7864 24.3088ZM96.6676 27.1895V20.4239H98.4868V21.6043H98.5572C98.6806 21.1844 98.8876 20.8673 99.1783 20.6529C99.469 20.4356 99.8038 20.327 100.183 20.327C100.277 20.327 100.378 20.3328 100.487 20.3446C100.595 20.3563 100.691 20.3725 100.773 20.393V22.058C100.685 22.0316 100.563 22.0081 100.407 21.9875C100.252 21.967 100.109 21.9567 99.98 21.9567C99.7039 21.9567 99.4573 22.0169 99.24 22.1373C99.0256 22.2548 98.8553 22.4192 98.729 22.6306C98.6057 22.8421 98.544 23.0858 98.544 23.3618V27.1895H96.6676ZM106.876 22.3531L105.158 22.4588C105.129 22.312 105.066 22.1799 104.969 22.0624C104.872 21.942 104.744 21.8466 104.586 21.7761C104.43 21.7027 104.243 21.666 104.026 21.666C103.735 21.666 103.49 21.7277 103.291 21.851C103.091 21.9714 102.991 22.1329 102.991 22.3355C102.991 22.497 103.056 22.6336 103.185 22.7451C103.314 22.8567 103.536 22.9463 103.85 23.0138L105.075 23.2605C105.732 23.3956 106.223 23.6129 106.546 23.9124C106.869 24.2119 107.03 24.6054 107.03 25.0929C107.03 25.5363 106.9 25.9254 106.638 26.2601C106.38 26.5949 106.024 26.8562 105.572 27.0442C105.123 27.2292 104.605 27.3217 104.017 27.3217C103.122 27.3217 102.408 27.1352 101.877 26.7623C101.348 26.3864 101.038 25.8754 100.947 25.2294L102.793 25.1325C102.849 25.4056 102.984 25.6141 103.198 25.758C103.412 25.8989 103.687 25.9694 104.022 25.9694C104.351 25.9694 104.615 25.9063 104.815 25.78C105.017 25.6508 105.12 25.4849 105.123 25.2823C105.12 25.112 105.048 24.9725 104.907 24.8638C104.766 24.7522 104.549 24.6671 104.255 24.6083L103.084 24.3749C102.423 24.2428 101.931 24.0137 101.608 23.6878C101.288 23.3618 101.128 22.9463 101.128 22.4412C101.128 22.0066 101.245 21.6322 101.48 21.318C101.718 21.0038 102.051 20.7616 102.48 20.5912C102.912 20.4209 103.417 20.3358 103.995 20.3358C104.85 20.3358 105.522 20.5164 106.013 20.8775C106.506 21.2387 106.794 21.7306 106.876 22.3531Z" fill="black"/>
<path d="M54.4958 36.0632V35.288H59.9084V36.0632H57.639V42.5047H56.7651V36.0632H54.4958ZM62.1613 42.6175C61.6727 42.6175 61.244 42.5012 60.8751 42.2686C60.5087 42.036 60.2221 41.7107 60.0153 41.2925C59.811 40.8744 59.7088 40.3857 59.7088 39.8266C59.7088 39.2628 59.811 38.7707 60.0153 38.3502C60.2221 37.9297 60.5087 37.6031 60.8751 37.3706C61.244 37.138 61.6727 37.0217 62.1613 37.0217C62.65 37.0217 63.0775 37.138 63.444 37.3706C63.8128 37.6031 64.0994 37.9297 64.3038 38.3502C64.5105 38.7707 64.6139 39.2628 64.6139 39.8266C64.6139 40.3857 64.5105 40.8744 64.3038 41.2925C64.0994 41.7107 63.8128 42.036 63.444 42.2686C63.0775 42.5012 62.65 42.6175 62.1613 42.6175ZM62.1613 41.8704C62.5325 41.8704 62.8379 41.7753 63.0775 41.585C63.3171 41.3947 63.4945 41.1445 63.6096 40.8344C63.7247 40.5243 63.7823 40.1884 63.7823 39.8266C63.7823 39.4649 63.7247 39.1277 63.6096 38.8153C63.4945 38.5029 63.3171 38.2503 63.0775 38.0577C62.8379 37.8651 62.5325 37.7687 62.1613 37.7687C61.7902 37.7687 61.4848 37.8651 61.2451 38.0577C61.0055 38.2503 60.8282 38.5029 60.713 38.8153C60.5979 39.1277 60.5404 39.4649 60.5404 39.8266C60.5404 40.1884 60.5979 40.5243 60.713 40.8344C60.8282 41.1445 61.0055 41.3947 61.2451 41.585C61.4848 41.7753 61.7902 41.8704 62.1613 41.8704ZM67.8403 37.0922V37.7969H65.0354V37.0922H67.8403ZM65.8529 35.7954H66.6845V40.9542C66.6845 41.1892 66.7185 41.3653 66.7867 41.4828C66.8571 41.5979 66.9464 41.6754 67.0545 41.7154C67.1649 41.753 67.2812 41.7718 67.4033 41.7718C67.4949 41.7718 67.5701 41.7671 67.6289 41.7577C67.6876 41.7459 67.7346 41.7365 67.7698 41.7295L67.9389 42.4765C67.8826 42.4977 67.8039 42.5188 67.7029 42.5399C67.6018 42.5634 67.4738 42.5752 67.3188 42.5752C67.0838 42.5752 66.8536 42.5247 66.6281 42.4237C66.4049 42.3226 66.2193 42.1688 66.0713 41.962C65.9257 41.7553 65.8529 41.4945 65.8529 41.1798V35.7954ZM70.287 42.6316C69.9441 42.6316 69.6328 42.567 69.3532 42.4377C69.0737 42.3062 68.8517 42.1171 68.6873 41.8704C68.5228 41.6214 68.4406 41.3207 68.4406 40.9683C68.4406 40.6582 68.5017 40.4069 68.6238 40.2142C68.746 40.0193 68.9093 39.8666 69.1136 39.7562C69.318 39.6457 69.5435 39.5635 69.7902 39.5095C70.0392 39.4531 70.2894 39.4085 70.5408 39.3756C70.8696 39.3333 71.1363 39.3016 71.3407 39.2804C71.5474 39.257 71.6977 39.2182 71.7917 39.1642C71.888 39.1101 71.9362 39.0162 71.9362 38.8823V38.8541C71.9362 38.5064 71.841 38.2362 71.6508 38.0436C71.4628 37.851 71.1774 37.7546 70.7945 37.7546C70.3975 37.7546 70.0862 37.8416 69.8607 38.0154C69.6351 38.1892 69.4766 38.3748 69.385 38.5722L68.5956 38.2903C68.7366 37.9614 68.9245 37.7053 69.1594 37.5221C69.3967 37.3365 69.6551 37.2073 69.9347 37.1345C70.2166 37.0593 70.4938 37.0217 70.7663 37.0217C70.9401 37.0217 71.1398 37.0428 71.3653 37.0851C71.5932 37.1251 71.8128 37.2085 72.0243 37.3353C72.238 37.4622 72.4154 37.6536 72.5564 37.9097C72.6973 38.1658 72.7678 38.5087 72.7678 38.9386V42.5047H71.9362V41.7718H71.8939C71.8375 41.8892 71.7435 42.0149 71.612 42.1488C71.4804 42.2827 71.3054 42.3966 71.0869 42.4906C70.8685 42.5846 70.6018 42.6316 70.287 42.6316ZM70.4139 41.8845C70.7428 41.8845 71.02 41.8199 71.2455 41.6907C71.4734 41.5615 71.6449 41.3947 71.76 41.1903C71.8774 40.986 71.9362 40.771 71.9362 40.5455V39.7843C71.9009 39.8266 71.8234 39.8654 71.7036 39.9006C71.5861 39.9335 71.4499 39.9629 71.2948 39.9887C71.1422 40.0122 70.993 40.0334 70.8473 40.0522C70.704 40.0686 70.5877 40.0827 70.4985 40.0944C70.2824 40.1226 70.0803 40.1684 69.8924 40.2319C69.7068 40.2929 69.5565 40.3857 69.4413 40.5102C69.3286 40.6324 69.2722 40.7992 69.2722 41.0106C69.2722 41.2996 69.3791 41.518 69.5929 41.666C69.809 41.8117 70.0827 41.8845 70.4139 41.8845ZM74.7203 35.288V42.5047H73.8887V35.288H74.7203ZM78.2405 42.5047V37.0922H79.0721V42.5047H78.2405ZM78.6634 36.1901C78.5013 36.1901 78.3615 36.1349 78.244 36.0245C78.1289 35.9141 78.0714 35.7813 78.0714 35.6263C78.0714 35.4712 78.1289 35.3385 78.244 35.2281C78.3615 35.1177 78.5013 35.0625 78.6634 35.0625C78.8254 35.0625 78.964 35.1177 79.0792 35.2281C79.1966 35.3385 79.2553 35.4712 79.2553 35.6263C79.2553 35.7813 79.1966 35.9141 79.0792 36.0245C78.964 36.1349 78.8254 36.1901 78.6634 36.1901ZM81.03 39.2487V42.5047H80.1983V37.0922H81.0018V37.9379H81.0722C81.1991 37.663 81.3917 37.4422 81.6501 37.2754C81.9086 37.1063 82.2421 37.0217 82.6509 37.0217C83.0174 37.0217 83.338 37.0969 83.6129 37.2472C83.8877 37.3952 84.1015 37.6207 84.2542 37.9238C84.4069 38.2245 84.4833 38.6051 84.4833 39.0655V42.5047H83.6516V39.1219C83.6516 38.6967 83.5412 38.3654 83.3204 38.1282C83.0996 37.8886 82.7965 37.7687 82.4113 37.7687C82.1458 37.7687 81.9086 37.8263 81.6995 37.9414C81.4927 38.0565 81.3295 38.2245 81.2097 38.4453C81.0899 38.6661 81.03 38.9339 81.03 39.2487ZM89.838 37.0922L87.8365 42.5047H86.9908L84.9893 37.0922H85.8914L87.3855 41.4053H87.4419L88.9359 37.0922H89.838ZM92.5438 42.6175C92.0552 42.6175 91.6264 42.5012 91.2576 42.2686C90.8911 42.036 90.6045 41.7107 90.3978 41.2925C90.1934 40.8744 90.0912 40.3857 90.0912 39.8266C90.0912 39.2628 90.1934 38.7707 90.3978 38.3502C90.6045 37.9297 90.8911 37.6031 91.2576 37.3706C91.6264 37.138 92.0552 37.0217 92.5438 37.0217C93.0324 37.0217 93.46 37.138 93.8264 37.3706C94.1953 37.6031 94.4819 37.9297 94.6863 38.3502C94.893 38.7707 94.9963 39.2628 94.9963 39.8266C94.9963 40.3857 94.893 40.8744 94.6863 41.2925C94.4819 41.7107 94.1953 42.036 93.8264 42.2686C93.46 42.5012 93.0324 42.6175 92.5438 42.6175ZM92.5438 41.8704C92.915 41.8704 93.2204 41.7753 93.46 41.585C93.6996 41.3947 93.877 41.1445 93.9921 40.8344C94.1072 40.5243 94.1647 40.1884 94.1647 39.8266C94.1647 39.4649 94.1072 39.1277 93.9921 38.8153C93.877 38.5029 93.6996 38.2503 93.46 38.0577C93.2204 37.8651 92.915 37.7687 92.5438 37.7687C92.1726 37.7687 91.8672 37.8651 91.6276 38.0577C91.388 38.2503 91.2106 38.5029 91.0955 38.8153C90.9804 39.1277 90.9229 39.4649 90.9229 39.8266C90.9229 40.1884 90.9804 40.5243 91.0955 40.8344C91.2106 41.1445 91.388 41.3947 91.6276 41.585C91.8672 41.7753 92.1726 41.8704 92.5438 41.8704ZM96.7005 35.288V42.5047H95.8689V35.288H96.7005ZM102.253 37.0922L100.251 42.5047H99.4054L97.4039 37.0922H98.3059L99.8 41.4053H99.8564L101.35 37.0922H102.253ZM105.029 42.6175C104.507 42.6175 104.057 42.5024 103.679 42.2721C103.303 42.0396 103.013 41.7154 102.809 41.2996C102.607 40.8814 102.506 40.3951 102.506 39.8407C102.506 39.2863 102.607 38.7977 102.809 38.3748C103.013 37.9496 103.297 37.6184 103.662 37.3811C104.028 37.1415 104.456 37.0217 104.944 37.0217C105.226 37.0217 105.505 37.0687 105.779 37.1627C106.054 37.2566 106.304 37.4093 106.53 37.6207C106.755 37.8298 106.935 38.107 107.069 38.4524C107.203 38.7977 107.27 39.2229 107.27 39.728V40.0803H103.098V39.3615H106.424C106.424 39.0561 106.363 38.7836 106.241 38.544C106.121 38.3044 105.95 38.1152 105.727 37.9766C105.506 37.838 105.245 37.7687 104.944 37.7687C104.613 37.7687 104.326 37.851 104.084 38.0154C103.845 38.1775 103.66 38.3889 103.531 38.6497C103.402 38.9104 103.337 39.19 103.337 39.4883V39.9676C103.337 40.3763 103.408 40.7228 103.549 41.0071C103.692 41.289 103.891 41.5039 104.144 41.6519C104.398 41.7976 104.693 41.8704 105.029 41.8704C105.247 41.8704 105.445 41.8399 105.621 41.7788C105.799 41.7154 105.953 41.6214 106.082 41.4969C106.212 41.37 106.311 41.2126 106.382 41.0247L107.185 41.2502C107.101 41.5227 106.959 41.7624 106.759 41.9691C106.559 42.1735 106.313 42.3332 106.019 42.4483C105.725 42.5611 105.395 42.6175 105.029 42.6175ZM108.138 42.5047V37.0922H108.941V37.9379H109.012C109.125 37.6489 109.307 37.4246 109.558 37.2648C109.81 37.1027 110.111 37.0217 110.464 37.0217C110.821 37.0217 111.118 37.1027 111.355 37.2648C111.595 37.4246 111.782 37.6489 111.916 37.9379H111.972C112.111 37.6583 112.318 37.4363 112.596 37.2719C112.873 37.1051 113.205 37.0217 113.593 37.0217C114.077 37.0217 114.473 37.1732 114.78 37.4763C115.088 37.777 115.242 38.2456 115.242 38.8823V42.5047H114.41V38.8823C114.41 38.4829 114.301 38.1975 114.083 38.026C113.864 37.8545 113.607 37.7687 113.311 37.7687C112.93 37.7687 112.636 37.8839 112.427 38.1141C112.217 38.3419 112.113 38.6309 112.113 38.9809V42.5047H111.267V38.7977C111.267 38.4899 111.167 38.2421 110.968 38.0542C110.768 37.8639 110.511 37.7687 110.196 37.7687C109.98 37.7687 109.778 37.8263 109.59 37.9414C109.404 38.0565 109.254 38.2163 109.139 38.4206C109.026 38.6227 108.97 38.8564 108.97 39.1219V42.5047H108.138ZM118.635 42.6175C118.113 42.6175 117.664 42.5024 117.285 42.2721C116.909 42.0396 116.619 41.7154 116.415 41.2996C116.213 40.8814 116.112 40.3951 116.112 39.8407C116.112 39.2863 116.213 38.7977 116.415 38.3748C116.619 37.9496 116.904 37.6184 117.268 37.3811C117.634 37.1415 118.062 37.0217 118.55 37.0217C118.832 37.0217 119.111 37.0687 119.385 37.1627C119.66 37.2566 119.911 37.4093 120.136 37.6207C120.362 37.8298 120.541 38.107 120.675 38.4524C120.809 38.7977 120.876 39.2229 120.876 39.728V40.0803H116.704V39.3615H120.03C120.03 39.0561 119.969 38.7836 119.847 38.544C119.727 38.3044 119.556 38.1152 119.333 37.9766C119.112 37.838 118.851 37.7687 118.55 37.7687C118.219 37.7687 117.932 37.851 117.691 38.0154C117.451 38.1775 117.267 38.3889 117.137 38.6497C117.008 38.9104 116.943 39.19 116.943 39.4883V39.9676C116.943 40.3763 117.014 40.7228 117.155 41.0071C117.298 41.289 117.497 41.5039 117.75 41.6519C118.004 41.7976 118.299 41.8704 118.635 41.8704C118.853 41.8704 119.051 41.8399 119.227 41.7788C119.405 41.7154 119.559 41.6214 119.689 41.4969C119.818 41.37 119.918 41.2126 119.988 41.0247L120.791 41.2502C120.707 41.5227 120.565 41.7624 120.365 41.9691C120.165 42.1735 119.919 42.3332 119.625 42.4483C119.331 42.5611 119.001 42.6175 118.635 42.6175ZM122.576 39.2487V42.5047H121.744V37.0922H122.548V37.9379H122.618C122.745 37.663 122.938 37.4422 123.196 37.2754C123.454 37.1063 123.788 37.0217 124.197 37.0217C124.563 37.0217 124.884 37.0969 125.159 37.2472C125.434 37.3952 125.647 37.6207 125.8 37.9238C125.953 38.2245 126.029 38.6051 126.029 39.0655V42.5047H125.197V39.1219C125.197 38.6967 125.087 38.3654 124.866 38.1282C124.645 37.8886 124.342 37.7687 123.957 37.7687C123.692 37.7687 123.454 37.8263 123.245 37.9414C123.039 38.0565 122.875 38.2245 122.755 38.4453C122.636 38.6661 122.576 38.9339 122.576 39.2487ZM129.506 37.0922V37.7969H126.701V37.0922H129.506ZM127.518 35.7954H128.35V40.9542C128.35 41.1892 128.384 41.3653 128.452 41.4828C128.523 41.5979 128.612 41.6754 128.72 41.7154C128.83 41.753 128.947 41.7718 129.069 41.7718C129.16 41.7718 129.235 41.7671 129.294 41.7577C129.353 41.7459 129.4 41.7365 129.435 41.7295L129.604 42.4765C129.548 42.4977 129.469 42.5188 129.368 42.5399C129.267 42.5634 129.139 42.5752 128.984 42.5752C128.749 42.5752 128.519 42.5247 128.293 42.4237C128.07 42.3226 127.885 42.1688 127.737 41.962C127.591 41.7553 127.518 41.4945 127.518 41.1798V35.7954Z" fill="black"/>
</svg>
