<svg width="85" height="64" viewBox="0 0 85 64" fill="none" xmlns="http://www.w3.org/2000/svg">
<path d="M77.3214 44.1786H74.6429V12.0357C74.6429 9.90451 73.7962 7.8606 72.2893 6.35361C70.7823 4.84662 68.7383 4 66.6071 4H18.3929C16.2617 4 14.2177 4.84662 12.7107 6.35361C11.2038 7.8606 10.3571 9.90451 10.3571 12.0357V44.1786H7.67857C6.96817 44.1786 6.28686 44.4608 5.78454 44.9631C5.28221 45.4654 5 46.1467 5 46.8571V52.2143C5 54.3455 5.84662 56.3894 7.35361 57.8964C8.8606 59.4034 10.9045 60.25 13.0357 60.25H71.9643C74.0955 60.25 76.1394 59.4034 77.6464 57.8964C79.1534 56.3894 80 54.3455 80 52.2143V46.8571C80 46.1467 79.7178 45.4654 79.2155 44.9631C78.7131 44.4608 78.0318 44.1786 77.3214 44.1786ZM15.7143 12.0357C15.7143 11.3253 15.9965 10.644 16.4988 10.1417C17.0012 9.63935 17.6825 9.35714 18.3929 9.35714H66.6071C67.3175 9.35714 67.9989 9.63935 68.5012 10.1417C69.0035 10.644 69.2857 11.3253 69.2857 12.0357V44.1786H15.7143V12.0357ZM74.6429 52.2143C74.6429 52.9247 74.3607 53.606 73.8583 54.1083C73.356 54.6107 72.6747 54.8929 71.9643 54.8929H13.0357C12.3253 54.8929 11.644 54.6107 11.1417 54.1083C10.6393 53.606 10.3571 52.9247 10.3571 52.2143V49.5357H74.6429V52.2143ZM50.5357 17.3929C50.5357 18.1033 50.2535 18.7846 49.7512 19.2869C49.2489 19.7892 48.5675 20.0714 47.8571 20.0714H37.1429C36.4325 20.0714 35.7512 19.7892 35.2488 19.2869C34.7465 18.7846 34.4643 18.1033 34.4643 17.3929C34.4643 16.6825 34.7465 16.0012 35.2488 15.4988C35.7512 14.9965 36.4325 14.7143 37.1429 14.7143H47.8571C48.5675 14.7143 49.2489 14.9965 49.7512 15.4988C50.2535 16.0012 50.5357 16.6825 50.5357 17.3929Z" fill="#FFCA7C"/>
</svg>
