<svg width="77" height="66" viewBox="0 0 77 66" fill="none" xmlns="http://www.w3.org/2000/svg">
<path d="M20.6883 40.625C18.5746 40.625 16.5084 41.2518 14.7509 42.4262C12.9935 43.6005 11.6237 45.2697 10.8148 47.2226C10.0059 49.1755 9.79431 51.3244 10.2067 53.3975C10.619 55.4707 11.6369 57.375 13.1315 58.8697C14.6261 60.3644 16.5303 61.3823 18.6034 61.7946C20.6765 62.207 22.8253 61.9954 24.7781 61.1865C26.7309 60.3775 28.3999 59.0077 29.5742 57.2502C30.7485 55.4926 31.3753 53.4263 31.3753 51.3125C31.3753 48.478 30.2494 45.7596 28.2452 43.7553C26.241 41.751 23.5227 40.625 20.6883 40.625ZM20.6883 57.25C19.5141 57.25 18.3662 56.9018 17.3898 56.2493C16.4134 55.5969 15.6524 54.6696 15.203 53.5847C14.7537 52.4997 14.6361 51.3059 14.8652 50.1541C15.0943 49.0024 15.6597 47.9444 16.4901 47.114C17.3204 46.2837 18.3783 45.7182 19.53 45.4891C20.6817 45.26 21.8755 45.3776 22.9604 45.827C24.0453 46.2764 24.9726 47.0374 25.6249 48.0138C26.2773 48.9902 26.6255 50.1382 26.6255 51.3125C26.6255 52.0922 26.472 52.8643 26.1736 53.5847C25.8752 54.305 25.4379 54.9596 24.8866 55.5109C24.3353 56.0623 23.6807 56.4996 22.9604 56.798C22.2401 57.0964 21.468 57.25 20.6883 57.25ZM10.696 27.0697L14.9559 22.8125L10.696 18.5553C10.2503 18.1097 10 17.5052 10 16.875C10 16.2448 10.2503 15.6403 10.696 15.1947C11.1416 14.749 11.746 14.4987 12.3762 14.4987C13.0064 14.4987 13.6108 14.749 14.0564 15.1947L18.3134 19.4548L22.5704 15.1947C23.016 14.749 23.6204 14.4987 24.2507 14.4987C24.8809 14.4987 25.4853 14.749 25.9309 15.1947C26.3765 15.6403 26.6269 16.2448 26.6269 16.875C26.6269 17.5052 26.3765 18.1097 25.9309 18.5553L21.6709 22.8125L25.9309 27.0697C26.3765 27.5153 26.6269 28.1198 26.6269 28.75C26.6269 29.3802 26.3765 29.9847 25.9309 30.4303C25.4853 30.876 24.8809 31.1263 24.2507 31.1263C23.6204 31.1263 23.016 30.876 22.5704 30.4303L18.3134 26.1702L14.0564 30.4303C13.6108 30.876 13.0064 31.1263 12.3762 31.1263C11.746 31.1263 11.1416 30.876 10.696 30.4303C10.2503 29.9847 10 29.3802 10 28.75C10 28.1198 10.2503 27.5153 10.696 27.0697ZM66.304 55.5697C66.5247 55.7903 66.6997 56.0523 66.8191 56.3406C66.9385 56.6289 67 56.9379 67 57.25C67 57.5621 66.9385 57.8711 66.8191 58.1594C66.6997 58.4477 66.5247 58.7096 66.304 58.9303C66.0834 59.151 65.8214 59.326 65.5331 59.4454C65.2448 59.5648 64.9358 59.6263 64.6238 59.6263C64.3117 59.6263 64.0027 59.5648 63.7145 59.4454C63.4262 59.326 63.1642 59.151 62.9436 58.9303L58.6866 54.6702L54.4296 58.9303C53.9839 59.376 53.3796 59.6263 52.7493 59.6263C52.1191 59.6263 51.5147 59.376 51.0691 58.9303C50.6235 58.4847 50.3731 57.8802 50.3731 57.25C50.3731 56.6198 50.6235 56.0153 51.0691 55.5697L55.3291 51.3125L51.0691 47.0553C50.6235 46.6097 50.3731 46.0052 50.3731 45.375C50.3731 44.7448 50.6235 44.1403 51.0691 43.6947C51.5147 43.249 52.1191 42.9987 52.7493 42.9987C53.3796 42.9987 53.9839 43.249 54.4296 43.6947L58.6866 47.9548L62.9436 43.6947C63.3892 43.249 63.9936 42.9987 64.6238 42.9987C65.254 42.9987 65.8584 43.249 66.304 43.6947C66.7497 44.1403 67 44.7448 67 45.375C67 46.0052 66.7497 46.6097 66.304 47.0553L62.0441 51.3125L66.304 55.5697ZM52.8889 28.9964C51.0543 35.6256 45.3723 41.3553 39.0759 42.9287C38.8875 42.9756 38.6941 42.9995 38.5 43C37.9209 42.9989 37.3621 42.7863 36.9288 42.4021C36.4955 42.0178 36.2175 41.4885 36.1471 40.9137C36.0767 40.3388 36.2188 39.7581 36.5466 39.2807C36.8744 38.8032 37.3653 38.462 37.9271 38.3212C42.567 37.1605 46.9368 32.7073 48.3172 27.7287C49.2642 24.3147 49.2731 19.1194 43.9504 13.8053L43.2498 13.1077V19.25C43.2498 19.8799 42.9996 20.484 42.5542 20.9294C42.1088 21.3748 41.5047 21.625 40.8749 21.625C40.245 21.625 39.641 21.3748 39.1956 20.9294C38.7502 20.484 38.5 19.8799 38.5 19.25V7.375C38.5 6.74511 38.7502 6.14102 39.1956 5.69562C39.641 5.25022 40.245 5 40.8749 5H52.7493C53.3792 5 53.9833 5.25022 54.4286 5.69562C54.874 6.14102 55.1242 6.74511 55.1242 7.375C55.1242 8.00489 54.874 8.60898 54.4286 9.05438C53.9833 9.49978 53.3792 9.75 52.7493 9.75H46.6073L47.3049 10.4447C52.7197 15.8627 54.7027 22.4503 52.8889 28.9964Z" fill="#FFCA7C"/>
</svg>
